# xmcd
#
# Track frame offsets:
#	150
#	19511
#	38967
#	57501
#	77001
#	95789
#	121317
#	140240
#	181020
#	206664
#	225475
#	246769
#	316681
#	330852
#
# Disc length: 4545 seconds
#
# Revision: 1
# Processed by: cddbd v1.5PL3 Copyright (c) Steve Scherf et al.
# Submitted via: audiograbber 1.82.01
#
DISCID=b511bf0e
DTITLE=John Lee Hooker - 1976-11-09 - Chicago IL
DYEAR=1900
DGENRE=
TTITLE0=John Lee Hooker - Boom Boom
TTITLE1=John Lee Hooker - Serves Me Right To Suffer
TTITLE2=John Lee Hooker - You Know It Ain't Right
TTITLE3=John Lee Hooker - Hobo Blues
TTITLE4=John Lee Hooker - One Bourbon,One Scotch,One beer
TTITLE5=John Lee Hooker - Whiskey And Women
TTITLE6=John Lee Hooker - Crawlin' King Snake
TTITLE7=John Lee Hooker - Boogie Chillen
TTITLE8=John Lee Hooker - You Know I Love You
TTITLE9=John Lee Hooker - Maudie
TTITLE10=John Lee Hooker - Crazy 'bout You Baby
TTITLE11=John Lee Hooker - Boogie Chillen
TTITLE12=John Lee Hooker - I Need Some Money
TTITLE13=John Lee Hooker - Bundle Up And Go
EXTD=
EXTT0=
EXTT1=
EXTT2=
EXTT3=
EXTT4=
EXTT5=
EXTT6=
EXTT7=
EXTT8=
EXTT9=
EXTT10=
EXTT11=
EXTT12=
EXTT13=
PLAYORDER=
